ffmpeg version N-92963-g1ea5529dd2 Copyright (c) 2000-2019 the FFmpeg developers
  built with gcc 8.2.1 (GCC) 20181201
  configuration: --enable-gpl --enable-version3 --enable-sdl2 --enable-fontconfig --enable-gnutls --enable-iconv --enable-libass --enable-libbluray --enable-libfreetype --enable-libmp3lame --enable-libopencore-amrnb --enable-libopencore-amrwb --enable-libopenjpeg --enable-libopus --enable-libshine --enable-libsnappy --enable-libsoxr --enable-libtheora --enable-libtwolame --enable-libvpx --enable-libwavpack --enable-libwebp --enable-libx264 --enable-libx265 --enable-libxml2 --enable-libzimg --enable-lzma --enable-zlib --enable-gmp --enable-libvidstab --enable-libvorbis --enable-libvo-amrwbenc --enable-libmysofa --enable-libspeex --enable-libxvid --enable-libaom --enable-libmfx --enable-amf --enable-ffnvcodec --enable-cuvid --enable-d3d11va --enable-nvenc --enable-nvdec --enable-dxva2 --enable-avisynth --enable-libopenmpt
  libavutil      56. 25.100 / 56. 25.100
  libavcodec     58. 43.101 / 58. 43.101
  libavformat    58. 25.100 / 58. 25.100
  libavdevice    58.  6.101 / 58.  6.101
  libavfilter     7. 48.100 /  7. 48.100
  libswscale      5.  4.100 /  5.  4.100
  libswresample   3.  4.100 /  3.  4.100
  libpostproc    55.  4.100 / 55.  4.100
Splitting the commandline.
Reading option '-v' ... matched as option 'v' (set logging level) with argument 'debug'.
Reading option '-nostdin' ... matched as option 'stdin' (enable or disable interaction on standard input) with argument 0.
Reading option '-progress' ... matched as option 'progress' (write program-readable progress information) with argument 'C:/Users/Jakob/AppData/Local/Temp/KritaFFmpegProgress.Od1700'.
Reading option '-r' ... matched as option 'r' (set frame rate (Hz value, fraction or abbreviation)) with argument '2'.
Reading option '-start_number' ... matched as AVOption 'start_number' with argument '0'.
Reading option '-i' ... matched as input url with argument 'F:/github/webbutveckling-projekt-2/site/img/frame%04d.png'.
Reading option '-vf' ... matched as option 'vf' (set video filters) with argument 'palettegen'.
Reading option '-y' ... matched as option 'y' (overwrite output files) with argument '1'.
Reading option 'F:/github/webbutveckling-projekt-2/site/img/palette.png' ... matched as output url.
Finished splitting the commandline.
Parsing a group of options: global .
Applying option v (set logging level) with argument debug.
Applying option nostdin (enable or disable interaction on standard input) with argument 0.
Applying option progress (write program-readable progress information) with argument C:/Users/Jakob/AppData/Local/Temp/KritaFFmpegProgress.Od1700.
[file @ 000002909a3faa80] Setting default whitelist 'file,crypto'
Applying option y (overwrite output files) with argument 1.
Successfully parsed a group of options.
Parsing a group of options: input url F:/github/webbutveckling-projekt-2/site/img/frame%04d.png.
Applying option r (set frame rate (Hz value, fraction or abbreviation)) with argument 2.
Successfully parsed a group of options.
Opening an input file: F:/github/webbutveckling-projekt-2/site/img/frame%04d.png.
[image2 @ 000002909a43b600] Opening 'F:/github/webbutveckling-projekt-2/site/img/frame0000.png' for reading
[file @ 000002909a43ed40] Setting default whitelist 'file,crypto'
[AVIOContext @ 000002909a446e80] Statistics: 76299 bytes read, 0 seeks
[image2 @ 000002909a43b600] Opening 'F:/github/webbutveckling-projekt-2/site/img/frame0001.png' for reading
[file @ 000002909a459c00] Setting default whitelist 'file,crypto'
[AVIOContext @ 000002909a459d00] Statistics: 77724 bytes read, 0 seeks
Input #0, image2, from 'F:/github/webbutveckling-projekt-2/site/img/frame%04d.png':
  Duration: 00:00:00.08, start: 0.000000, bitrate: N/A
    Stream #0:0, 2, 1/25: Video: png, 1 reference frame, rgba(pc), 900x600 [SAR 3937:3937 DAR 3:2], 0/1, 25 tbr, 25 tbn, 25 tbc
Successfully opened the file.
Parsing a group of options: output url F:/github/webbutveckling-projekt-2/site/img/palette.png.
Applying option vf (set video filters) with argument palettegen.
Successfully parsed a group of options.
Opening an output file: F:/github/webbutveckling-projekt-2/site/img/palette.png.
Successfully opened the file.
detected 8 logical cores
Stream mapping:
  Stream #0:0 -> #0:0 (png (native) -> png (native))
cur_dts is invalid (this is harmless if it occurs once at the start per stream)
    Last message repeated 2 times
[graph 0 input from stream 0:0 @ 000002909a47c180] Setting 'video_size' to value '900x600'
[graph 0 input from stream 0:0 @ 000002909a47c180] Setting 'pix_fmt' to value '26'
[graph 0 input from stream 0:0 @ 000002909a47c180] Setting 'time_base' to value '1/2'
[graph 0 input from stream 0:0 @ 000002909a47c180] Setting 'pixel_aspect' to value '3937/3937'
[graph 0 input from stream 0:0 @ 000002909a47c180] Setting 'sws_param' to value 'flags=2'
[graph 0 input from stream 0:0 @ 000002909a47c180] Setting 'frame_rate' to value '2/1'
[graph 0 input from stream 0:0 @ 000002909a47c180] w:900 h:600 pixfmt:rgba tb:1/2 fr:2/1 sar:3937/3937 sws_param:flags=2
[format @ 000002909a459c00] Setting 'pix_fmts' to value 'rgb24|rgba|rgb48be|rgba64be|pal8|gray|ya8|gray16be|ya16be|monob'
[auto_scaler_0 @ 000002909a45ce40] Setting 'flags' to value 'bicubic'
[auto_scaler_0 @ 000002909a45ce40] w:iw h:ih flags:'bicubic' interl:0
[Parsed_palettegen_0 @ 000002909a47c080] auto-inserting filter 'auto_scaler_0' between the filter 'graph 0 input from stream 0:0' and the filter 'Parsed_palettegen_0'
[auto_scaler_1 @ 000002909a48be80] Setting 'flags' to value 'bicubic'
[auto_scaler_1 @ 000002909a48be80] w:iw h:ih flags:'bicubic' interl:0
[format @ 000002909a459c00] auto-inserting filter 'auto_scaler_1' between the filter 'Parsed_palettegen_0' and the filter 'format'
[AVFilterGraph @ 000002909a47bfc0] query_formats: 4 queried, 1 merged, 2 already done, 0 delayed
[auto_scaler_1 @ 000002909a48be80] picking rgba out of 10 ref:bgra alpha:1
[swscaler @ 000002909a492f80] Forcing full internal H chroma due to input having non subsampled chroma
[auto_scaler_0 @ 000002909a45ce40] w:900 h:600 fmt:rgba sar:3937/3937 -> w:900 h:600 fmt:bgra sar:1/1 flags:0x4
[swscaler @ 000002909a4b6e80] Forcing full internal H chroma due to input having non subsampled chroma
[auto_scaler_1 @ 000002909a48be80] w:16 h:16 fmt:bgra sar:1/1 -> w:16 h:16 fmt:rgba sar:1/1 flags:0x4
Output #0, image2, to 'F:/github/webbutveckling-projekt-2/site/img/palette.png':
  Metadata:
    encoder         : Lavf58.25.100
    Stream #0:0, 0, 1/2: Video: png, 1 reference frame, rgba, 16x16 [SAR 1:1 DAR 1:1], 0/1, q=2-31, 200 kb/s, 2 fps, 2 tbn, 2 tbc
    Metadata:
      encoder         : Lavc58.43.101 png
cur_dts is invalid (this is harmless if it occurs once at the start per stream)
    Last message repeated 1 times
[Parsed_palettegen_0 @ 000002909a47c080] 255(+1) colors generated out of 3755 colors; ratio=0.067909
[Parsed_palettegen_0 @ 000002909a47c080] Dupped color: FF4E4B3F
[Parsed_palettegen_0 @ 000002909a47c080] Dupped color: FF4E4B40
[Parsed_palettegen_0 @ 000002909a47c080] Dupped color: FF867431
[Parsed_palettegen_0 @ 000002909a47c080] Dupped color: FF8D7A37
[Parsed_palettegen_0 @ 000002909a47c080] Dupped color: FF9C8945
[Parsed_palettegen_0 @ 000002909a47c080] Dupped color: FF9D8B46
[Parsed_palettegen_0 @ 000002909a47c080] Dupped color: FF9E8B47
[Parsed_palettegen_0 @ 000002909a47c080] Dupped color: FFA3904C
[Parsed_palettegen_0 @ 000002909a47c080] Dupped color: FFA6934E
cur_dts is invalid (this is harmless if it occurs once at the start per stream)
Clipping frame in rate conversion by 0.000008
cur_dts is invalid (this is harmless if it occurs once at the start per stream)
[out_0_0 @ 000002909a45cc80] EOF on sink link out_0_0:default.
No more output streams to write to, finishing.
[image2 @ 000002909a43dec0] Opening 'F:/github/webbutveckling-projekt-2/site/img/palette.png' for writing
[file @ 000002909a4c6980] Setting default whitelist 'file,crypto'
[AVIOContext @ 000002909a461e40] Statistics: 0 seeks, 1 writeouts
frame=    1 fps=0.0 q=-0.0 Lsize=N/A time=00:00:00.50 bitrate=N/A speed=29.5x    
[AVIOContext @ 000002909a43b4c0] Statistics: 0 seeks, 1 writeouts
video:1kB audio:0kB subtitle:0kB other streams:0kB global headers:0kB muxing overhead: unknown
Input file #0 (F:/github/webbutveckling-projekt-2/site/img/frame%04d.png):
  Input stream #0:0 (video): 2 packets read (154023 bytes); 2 frames decoded; 
  Total: 2 packets (154023 bytes) demuxed
Output file #0 (F:/github/webbutveckling-projekt-2/site/img/palette.png):
  Output stream #0:0 (video): 1 frames encoded; 1 packets muxed (839 bytes); 
  Total: 1 packets (839 bytes) muxed
2 frames successfully decoded, 0 decoding errors
